# xmcd CD database file generated by OrangeCD 6.1
#
# Track frame offsets:
#	150
#	20236
#	33796
#	55832
#	73571
#	90446
#	111657
#	125667
#	142828
#
# Disc length: 2129 seconds
#
# Revision: 0
# Processed by: cddbd v1.5.2PL0 Copyright (c) Steve Scherf et al.
# Submitted via: OrangeCD 6.1
#
DISCID=7a084f09
DTITLE=Wilson Pickett - Join Me And Let's Be Free
DYEAR=1975
DGENRE=Soul
TTITLE0=Join Me and Let's Be Free
TTITLE1=Let's Make Love Right
TTITLE2=I've Got A Good Friend
TTITLE3=Smokin' In The United Nations
TTITLE4=Gone
TTITLE5=Good Things
TTITLE6=Higher Consciousness
TTITLE7=Bailin' Hay On A Rainy Day
TTITLE8=Mighty Mouth
EXTD=
EXTT0=
EXTT1=
EXTT2=
EXTT3=
EXTT4=
EXTT5=
EXTT6=
EXTT7=
EXTT8=
PLAYORDER=
